<svg width="79" height="28" fill="none" xmlns="http://www.w3.org/2000/svg"><path d="M5.145 24.683c-1.12 0-2.032-.28-2.736-.84-.704-.576-1.224-1.343-1.56-2.303-.32-.976-.48-2.056-.48-3.24v-6.553c0-1.264.144-2.415.432-3.455.288-1.04.776-1.872 1.464-2.496.704-.624 1.664-.936 2.88-.936 1.008 0 1.856.184 2.544.552.704.368 1.24.904 1.608 1.608.384.704.584 1.56.6 2.568v.144a.453.453 0 0 1 .024.144H7.33c0-.944-.152-1.664-.456-2.16-.304-.496-.88-.744-1.728-.744-.464 0-.864.152-1.2.456-.336.288-.592.736-.768 1.344-.16.608-.24 1.392-.24 2.351v2.953c.256-.4.616-.72 1.08-.96.48-.256 1.064-.384 1.752-.384 1.072 0 1.912.232 2.52.696.608.463 1.04 1.12 1.296 1.967.256.832.384 1.817.384 2.953 0 1.168-.16 2.232-.48 3.192-.32.96-.832 1.727-1.536 2.303-.704.56-1.64.84-2.808.84Zm0-2.136c.576 0 1.024-.16 1.344-.48.32-.335.544-.776.672-1.32a6.926 6.926 0 0 0 .216-1.776c0-.768-.04-1.48-.12-2.136-.064-.655-.248-1.176-.552-1.56-.304-.4-.824-.6-1.56-.6-.352 0-.672.064-.96.192a2.443 2.443 0 0 0-.744.504c-.208.192-.376.4-.504.624V18.9c0 .655.064 1.264.192 1.824.144.56.376 1.008.696 1.343.32.32.76.48 1.32.48Zm12.119 2.136c-1.104 0-2.016-.247-2.736-.744-.704-.495-1.232-1.175-1.584-2.04-.336-.864-.504-1.848-.504-2.951V10.57c0-1.135.168-2.127.504-2.975.336-.864.856-1.536 1.56-2.016.72-.48 1.64-.72 2.76-.72 1.12 0 2.032.24 2.736.72.704.48 1.224 1.152 1.56 2.016.336.848.504 1.84.504 2.976v8.376c0 1.12-.176 2.111-.528 2.976-.336.864-.856 1.544-1.56 2.04-.704.48-1.608.72-2.712.72Zm0-2.111c.608 0 1.064-.177 1.368-.528.32-.352.536-.8.648-1.345a7.73 7.73 0 0 0 .192-1.728v-8.424c0-.623-.056-1.207-.168-1.751-.112-.56-.328-1.008-.648-1.344-.304-.336-.768-.504-1.392-.504-.624 0-1.096.168-1.416.504-.32.336-.536.784-.648 1.344a8.683 8.683 0 0 0-.168 1.752v8.423c0 .593.056 1.169.168 1.729.128.544.352.992.672 1.344.336.351.8.527 1.392.527Zm11.93 5.424v-5.473h.888c.272-.224.536-.495.792-.816.272-.32.52-.736.744-1.248.24-.527.456-1.2.648-2.015.192-.832.36-1.872.504-3.12.16-1.248.28-2.76.36-4.537l.312-5.76h8.136v17.496h1.872v5.473h-2.088l-.216-3.528h-9.648l-.216 3.527h-2.088Zm3.408-5.473h6.288V7.043h-3.144l-.192 4.392c-.064 1.729-.168 3.184-.312 4.368-.128 1.168-.288 2.136-.48 2.904-.176.752-.384 1.369-.624 1.848-.224.465-.472.84-.744 1.128-.256.288-.52.569-.792.84Zm12.887 1.945V5.027h2.712v8.4h4.992v-8.4h2.712v19.44h-2.712V15.37h-4.992v9.097H45.49Zm13.453 0V5.027h7.536v2.016h-4.824v6.432h3.912v1.92h-3.912v7.127h4.872v1.945h-7.584Zm9.774 0V5.027h2.4V18.49l5.688-13.463h1.944v19.44h-2.376v-13.68l-5.64 13.68h-2.016Zm5.256-20.952c-1.152 0-1.968-.312-2.448-.936-.464-.624-.696-1.4-.696-2.328h1.488c.016.576.144 1.024.384 1.344.256.304.68.456 1.272.456.608 0 1.032-.16 1.272-.48.256-.32.384-.76.384-1.32h1.512c0 .928-.24 1.704-.72 2.328-.464.624-1.28.936-2.448.936Z" fill="#000"/></svg>