<svg aria-hidden="true" style="position: absolute; width: 0; height: 0; overflow: hidden;" version="1.1" xmlns="http://www.w3.org/2000/svg" xmlns:xlink="http://www.w3.org/1999/xlink">
<defs>
<symbol id="icon-logo-2" viewBox="0 0 180 32">
<path d="M2.247 29.401c-1.414-1.966-2.261-4.422-2.261-7.076 0-0.204 0.005-0.407 0.015-0.609l-0.001 0.028v-11.351c-0.019-0.254-0.029-0.551-0.029-0.85 0-2.593 0.799-4.999 2.163-6.986l-0.027 0.042c1.547-1.778 3.934-2.599 7.447-2.599s5.76 0.821 7.164 2.325c1.327 1.638 2.131 3.747 2.131 6.045 0 0.231-0.008 0.46-0.024 0.686l0.002-0.030v2.734h-6.884v-3.145c0.007-0.115 0.011-0.25 0.011-0.386 0-0.844-0.159-1.652-0.45-2.393l0.015 0.045c-0.184-0.358-0.462-0.645-0.801-0.836l-0.010-0.005c-0.289-0.163-0.635-0.26-1.003-0.26-0.054 0-0.107 0.002-0.159 0.006l0.007-0c-0.983 0-1.685 0.274-1.966 0.958-0.271 0.8-0.428 1.722-0.428 2.68 0 0.115 0.002 0.23 0.007 0.344l-0-0.016v14.631c-0.010 0.124-0.015 0.268-0.015 0.413 0 0.896 0.213 1.743 0.592 2.492l-0.014-0.032c0.281 0.684 0.983 0.958 1.966 0.958s1.547-0.274 1.826-0.958c0.32-0.924 0.462-1.897 0.423-2.871v-3.282h6.884v2.734c0.011 0.175 0.017 0.379 0.017 0.585 0 2.364-0.799 4.541-2.141 6.276l0.018-0.024c-1.404 1.641-3.794 2.462-7.166 2.462-3.372-0.137-5.902-0.958-7.307-2.736zM27.116 0.409h8.007l5.902 31.182h-6.466l-1.124-6.565h-4.636l-1.124 6.564h-6.604l6.044-31.179zM32.876 20.924l-1.685-12.172-1.687 12.171h3.372zM45.943 5.607h-4.777v-5.198h16.718v5.060h-4.777v26.119h-7.164v-25.98zM70.67 0.409h12.364v3.284h-8.009v10.258h6.462v3.143h-6.462v11.488h8.009v3.147h-12.505v-31.319h0.14zM86.686 0.409h3.092l9.132 20.651v-20.649h3.653v31.179h-2.809l-9.275-21.333v21.333h-3.794v-31.179zM106.779 0.409h12.363v3.284h-8.007v10.258h6.462v3.143h-6.462v11.488h8.007v3.147h-12.363v-31.319zM122.795 0.409h6.462c0.233-0.017 0.504-0.026 0.778-0.026 2.382 0 4.594 0.726 6.427 1.969l-0.040-0.026c1.547 1.23 2.249 3.419 2.249 6.29 0 3.964-1.262 6.428-3.932 7.248l4.494 15.591h-4.356l-4.213-14.633h-3.513v14.631h-4.496v-31.042h0.14zM128.976 13.813c0.152 0.013 0.328 0.021 0.506 0.021 1.335 0 2.572-0.417 3.589-1.129l-0.020 0.013c0.843-0.684 1.264-2.052 1.264-4.103 0.004-0.098 0.006-0.212 0.006-0.327 0-0.958-0.156-1.88-0.445-2.742l0.018 0.061c-0.329-0.708-0.863-1.273-1.526-1.632l-0.019-0.009c-0.782-0.355-1.695-0.562-2.657-0.562-0.153 0-0.305 0.005-0.455 0.016l0.020-0.001h-1.966v10.258h1.685v0.135zM144.29 29.266c-1.251-2.012-1.992-4.453-1.992-7.068 0-0.304 0.010-0.606 0.030-0.905l-0.002 0.041v-10.393c-0.002-0.113-0.003-0.247-0.003-0.38 0-1.955 0.257-3.85 0.74-5.653l-0.035 0.152c0.498-1.477 1.432-2.697 2.647-3.54l0.023-0.015c1.568-0.903 3.378-1.333 5.198-1.23 2.951 0 5.058 0.683 6.322 2.187 1.247 1.679 1.996 3.792 1.996 6.081 0 0.267-0.010 0.531-0.030 0.793l0.002-0.035v1.093h-4.217v-0.956c0-0.033 0-0.071 0-0.11 0-1.169-0.102-2.314-0.298-3.427l0.017 0.118c-0.129-0.74-0.54-1.365-1.117-1.772l-0.009-0.006c-0.674-0.435-1.497-0.694-2.381-0.694-0.101 0-0.202 0.003-0.301 0.010l0.013-0.001c-0.081-0.005-0.175-0.009-0.271-0.009-0.955 0-1.837 0.311-2.55 0.838l0.012-0.008c-0.332 0.27-0.601 0.604-0.795 0.98-0.185 0.351-0.304 0.763-0.33 1.2l-0 0.008c-0.177 1.108-0.279 2.386-0.281 3.689v11.627c-0.013 0.21-0.020 0.457-0.020 0.704 0 1.618 0.317 3.162 0.892 4.573l-0.029-0.081c0.562 1.093 1.687 1.504 3.372 1.504 0.665 0.080 1.34-0.032 1.941-0.324 0.599-0.293 1.097-0.75 1.431-1.317 0.631-1.43 0.999-3.098 0.999-4.851 0-0.218-0.006-0.434-0.017-0.649l0.001 0.030v-2.187h-4.075v-3.147h8.149v15.452h-2.809l-0.423-3.556c-0.391 1.227-1.157 2.241-2.161 2.935l-0.019 0.012c-0.925 0.642-2.071 1.025-3.307 1.025-0.096 0-0.192-0.002-0.287-0.007l0.013 0.001c-0.124 0.008-0.269 0.012-0.415 0.012-1.073 0-2.091-0.235-3.006-0.656l0.045 0.018c-1.073-0.491-1.968-1.207-2.655-2.093l-0.012-0.016zM168.316 20.649l-6.885-20.101h4.215l4.917 15.042 4.779-15.042h4.213l-6.885 20.101v10.94h-4.213v-10.94h-0.142z"></path>
</symbol>
<!-- <symbol id="icon-open-menu" viewBox="0 0 43 32">
<path stroke-linejoin="miter" stroke-linecap="butt" stroke-miterlimit="4" stroke-width="2.6667" d="M0 2.222h42.667M0 16.444h42.667M0 30.667h42.667"></path>
</symbol> -->
<!-- <symbol id="icon-open-menu" viewBox="0 0 32 32">
<path d="M6.4 11.733v-2.133h19.2v2.133h-19.2zM6.4 17.067h19.2v-2.133h-19.2v2.133zM6.4 22.4h19.2v-2.133h-19.2v2.133z"></path>
</symbol> -->
<symbol id="icon-open-menu_24px" viewBox="0 0 48 32">
<path d="M0 5.333v-5.333h48v5.333h-48zM0 18.667h48v-5.333h-48v5.333zM0 32h48v-5.333h-48v5.333z"></path>
</symbol>
<symbol id="icon-logo-1" viewBox="0 0 29 32">
<path fill="#fdc305" style="fill: var(--color1, #fdc305)" d="M5.112 17.448v-1.903c4.93-0.714 10.623-1.121 16.411-1.121 0.202 0 0.404 0.001 0.606 0.002l-0.031-0c0 0.505 0 1.019-0.051 1.533 1.457-0.666 3.152-1.198 4.923-1.513l0.13-0.019c-2.089-5.296-7.161-8.976-13.094-8.976-6.935 0-12.695 5.028-13.834 11.638l-0.012 0.083 4.952 0.278zM22.939 20.404c-0.977 1.078-1.171 1.011-1.171 2.905v7.731c3.807-2.541 6.283-6.816 6.291-11.67v-0.001c-0.012-0.931-0.11-1.831-0.285-2.704l0.016 0.093c-1.833 1.098-3.421 2.303-4.865 3.66l0.015-0.014zM5.356 21.659s-3.192-1.213-4.371-1.541c-0.271-0.090-0.603-0.172-0.943-0.23l-0.043-0.006c0.197 5.080 3.068 9.448 7.237 11.753l0.072 0.037-1.954-10.013z"></path>
<path fill="#f06351" style="fill: var(--color2, #f06351)" d="M22.139 14.417c0.001-0.165 0.002-0.361 0.002-0.557 0-4.705-0.43-9.31-1.252-13.777l0.071 0.465s-0.118-1.086-0.749-0.202c-0.466 0.962-0.819 2.078-1.002 3.25l-0.009 0.067c-1.138-0.078-2.467-0.122-3.807-0.122-2.448 0-4.862 0.149-7.232 0.437l0.285-0.028c-0.665-2.265-1.836-3.318-2.4-3.107s-0.606 2.787-0.606 2.787l-0.278 11.874c4.858-0.693 10.468-1.089 16.17-1.089 0.284 0 0.567 0.001 0.85 0.003l-0.043-0z"></path>
<path fill="#000" style="fill: var(--color3, #000)" d="M10.451 11.789c0-0.076 0.842 0.573 1.187 0.775s0.514 0.354 0.514 0.497c0 0.143-0.227 0.286-0.531 0.286s-0.766-0.101-0.842-0.227h1.036c-0.519-0.386-0.968-0.825-1.353-1.315l-0.012-0.015zM16.749 11.882l-0.918 1.12c0 0.051-0.143 0.295 0.152 0.253 0.391-0.059 0.737-0.144 1.071-0.257l-0.044 0.013c0.093 0 0.059-0.16-0.093-0.143s-0.581 0.042-0.842 0.093l0.707-1.061s0.059-0.109-0.034-0.017zM14.105 17.011c0.394-0.177 0.71-0.468 0.913-0.832l0.005-0.010c0.236-0.547 0-0.766-0.371-0.842-0.11-0.021-0.237-0.033-0.367-0.033-0.408 0-0.787 0.119-1.106 0.324l0.008-0.005c-0.328 0.303-0.286 0.606-0.042 0.842 0.278 0.212 0.594 0.398 0.931 0.545l0.029 0.011z"></path>
<path fill="#f06351" style="fill: var(--color2, #f06351)" d="M13.768 18.063c-0.098 0.198-0.229 0.366-0.386 0.504l-0.002 0.002c-0.229 0.186-0.521 0.304-0.839 0.32l-0.003 0c-0.043 0.004-0.093 0.006-0.144 0.006-0.413 0-0.794-0.138-1.098-0.371l0.004 0.003c-0.171-0.104-0.318-0.227-0.445-0.369l-0.002-0.002c-0.084-0.093-0.188-0.168-0.303-0.219 0 0 0.632 3.453 2.164 4s1.802-0.632 1.853-0.952c0.004-0.075 0.007-0.162 0.007-0.25 0-0.914-0.259-1.767-0.709-2.49l0.012 0.020c-0.017-0.261-0.025-0.093-0.109-0.202z"></path>
<path fill="#000" style="fill: var(--color3, #000)" d="M12.387 19.023c-0.83-0.12-1.535-0.577-1.982-1.225l-0.006-0.010c-0.006-0.013-0.009-0.029-0.009-0.046 0-0.033 0.014-0.063 0.035-0.084l0-0c0.021-0.022 0.051-0.035 0.084-0.035s0.063 0.014 0.084 0.035l0 0c0.419 0.571 1.042 0.971 1.761 1.093l0.016 0.002c0.583-0.045 1.081-0.368 1.368-0.834l0.004-0.008 0.118-0.16 0.084 0.177s0.312 0.64 0.842 0.674c0.531 0.034 0.884-0.345 1.356-1.078 0.021-0.022 0.051-0.035 0.084-0.035s0.063 0.014 0.084 0.035l0 0c0.035 0.023 0.058 0.062 0.058 0.106 0 0.023-0.006 0.044-0.017 0.063l0-0.001c-0.539 0.842-1.069 1.213-1.583 1.179-0.405-0.060-0.745-0.3-0.94-0.634l-0.003-0.006c-0.329 0.455-0.846 0.757-1.435 0.791l-0.005 0z"></path>
<path fill="#f06351" style="fill: var(--color2, #f06351)" d="M22.097 15.933c-1.517 1.376-2.912 2.802-4.217 4.309l-0.052 0.062c-1.325 1.534-2.785 2.887-4.382 4.067l-0.073 0.051c-0.185-0.446-1.364-1.272-1.364-1.272s-2.636-1.802-4.362-3.217c-0.951-0.805-1.811-1.63-2.617-2.506l-0.018-0.020-1.684-0.093c2.422 3.491 5.902 6.098 9.971 7.374l0.135 0.036c0.724-0.118 2.754-1.566 4.269-2.745 1.805-1.554 3.439-3.175 4.954-4.904l0.048-0.056c0.408-0.476 0.734-1.036 0.949-1.648l0.011-0.036c-0.926 0.328-1.566 0.598-1.566 0.598z"></path>
</symbol>
</defs>
</svg>
