<svg aria-hidden="true" style="position: absolute; width: 0; height: 0; overflow: hidden;" version="1.1" xmlns="http://www.w3.org/2000/svg" xmlns:xlink="http://www.w3.org/1999/xlink">
<defs>
<symbol id="icon-logo-2" viewBox="0 0 180 32">
<path d="M2.247 29.401c-1.414-1.966-2.261-4.422-2.261-7.076 0-0.204 0.005-0.407 0.015-0.609l-0.001 0.028v-11.351c-0.019-0.254-0.029-0.551-0.029-0.85 0-2.593 0.799-4.999 2.163-6.986l-0.027 0.042c1.547-1.778 3.934-2.599 7.447-2.599s5.76 0.821 7.164 2.325c1.327 1.638 2.131 3.747 2.131 6.045 0 0.231-0.008 0.46-0.024 0.686l0.002-0.030v2.734h-6.884v-3.145c0.007-0.115 0.011-0.25 0.011-0.386 0-0.844-0.159-1.652-0.45-2.393l0.015 0.045c-0.184-0.358-0.462-0.645-0.801-0.836l-0.010-0.005c-0.289-0.163-0.635-0.26-1.003-0.26-0.054 0-0.107 0.002-0.159 0.006l0.007-0c-0.983 0-1.685 0.274-1.966 0.958-0.271 0.8-0.428 1.722-0.428 2.68 0 0.115 0.002 0.23 0.007 0.344l-0-0.016v14.631c-0.010 0.124-0.015 0.268-0.015 0.413 0 0.896 0.213 1.743 0.592 2.492l-0.014-0.032c0.281 0.684 0.983 0.958 1.966 0.958s1.547-0.274 1.826-0.958c0.32-0.924 0.462-1.897 0.423-2.871v-3.282h6.884v2.734c0.011 0.175 0.017 0.379 0.017 0.585 0 2.364-0.799 4.541-2.141 6.276l0.018-0.024c-1.404 1.641-3.794 2.462-7.166 2.462-3.372-0.137-5.902-0.958-7.307-2.736zM27.116 0.409h8.007l5.902 31.182h-6.466l-1.124-6.565h-4.636l-1.124 6.564h-6.604l6.044-31.179zM32.876 20.924l-1.685-12.172-1.687 12.171h3.372zM45.943 5.607h-4.777v-5.198h16.718v5.060h-4.777v26.119h-7.164v-25.98zM70.67 0.409h12.364v3.284h-8.009v10.258h6.462v3.143h-6.462v11.488h8.009v3.147h-12.505v-31.319h0.14zM86.686 0.409h3.092l9.132 20.651v-20.649h3.653v31.179h-2.809l-9.275-21.333v21.333h-3.794v-31.179zM106.779 0.409h12.363v3.284h-8.007v10.258h6.462v3.143h-6.462v11.488h8.007v3.147h-12.363v-31.319zM122.795 0.409h6.462c0.233-0.017 0.504-0.026 0.778-0.026 2.382 0 4.594 0.726 6.427 1.969l-0.040-0.026c1.547 1.23 2.249 3.419 2.249 6.29 0 3.964-1.262 6.428-3.932 7.248l4.494 15.591h-4.356l-4.213-14.633h-3.513v14.631h-4.496v-31.042h0.14zM128.976 13.813c0.152 0.013 0.328 0.021 0.506 0.021 1.335 0 2.572-0.417 3.589-1.129l-0.020 0.013c0.843-0.684 1.264-2.052 1.264-4.103 0.004-0.098 0.006-0.212 0.006-0.327 0-0.958-0.156-1.88-0.445-2.742l0.018 0.061c-0.329-0.708-0.863-1.273-1.526-1.632l-0.019-0.009c-0.782-0.355-1.695-0.562-2.657-0.562-0.153 0-0.305 0.005-0.455 0.016l0.020-0.001h-1.966v10.258h1.685v0.135zM144.29 29.266c-1.251-2.012-1.992-4.453-1.992-7.068 0-0.304 0.010-0.606 0.030-0.905l-0.002 0.041v-10.393c-0.002-0.113-0.003-0.247-0.003-0.38 0-1.955 0.257-3.85 0.74-5.653l-0.035 0.152c0.498-1.477 1.432-2.697 2.647-3.54l0.023-0.015c1.568-0.903 3.378-1.333 5.198-1.23 2.951 0 5.058 0.683 6.322 2.187 1.247 1.679 1.996 3.792 1.996 6.081 0 0.267-0.010 0.531-0.030 0.793l0.002-0.035v1.093h-4.217v-0.956c0-0.033 0-0.071 0-0.11 0-1.169-0.102-2.314-0.298-3.427l0.017 0.118c-0.129-0.74-0.54-1.365-1.117-1.772l-0.009-0.006c-0.674-0.435-1.497-0.694-2.381-0.694-0.101 0-0.202 0.003-0.301 0.010l0.013-0.001c-0.081-0.005-0.175-0.009-0.271-0.009-0.955 0-1.837 0.311-2.55 0.838l0.012-0.008c-0.332 0.27-0.601 0.604-0.795 0.98-0.185 0.351-0.304 0.763-0.33 1.2l-0 0.008c-0.177 1.108-0.279 2.386-0.281 3.689v11.627c-0.013 0.21-0.020 0.457-0.020 0.704 0 1.618 0.317 3.162 0.892 4.573l-0.029-0.081c0.562 1.093 1.687 1.504 3.372 1.504 0.665 0.080 1.34-0.032 1.941-0.324 0.599-0.293 1.097-0.75 1.431-1.317 0.631-1.43 0.999-3.098 0.999-4.851 0-0.218-0.006-0.434-0.017-0.649l0.001 0.030v-2.187h-4.075v-3.147h8.149v15.452h-2.809l-0.423-3.556c-0.391 1.227-1.157 2.241-2.161 2.935l-0.019 0.012c-0.925 0.642-2.071 1.025-3.307 1.025-0.096 0-0.192-0.002-0.287-0.007l0.013 0.001c-0.124 0.008-0.269 0.012-0.415 0.012-1.073 0-2.091-0.235-3.006-0.656l0.045 0.018c-1.073-0.491-1.968-1.207-2.655-2.093l-0.012-0.016zM168.316 20.649l-6.885-20.101h4.215l4.917 15.042 4.779-15.042h4.213l-6.885 20.101v10.94h-4.213v-10.94h-0.142z"></path>
</symbol>
<symbol id="icon-cat-pro-mob" viewBox="0 0 77 32">
<path d="M70.343 3.314c0.672-1.058 1.532-1.936 2.54-2.609l0.032-0.020c0.571-0.4 0.914-0.4 1.257 0.343 0.457 1.086 0.857 2.229 0.514 3.429-0.036 0.115-0.057 0.247-0.057 0.383 0 0.31 0.108 0.595 0.288 0.819l-0.002-0.003c0.343 0.457 0.629 0.914 0.914 1.314 0.479 0.604 0.768 1.377 0.768 2.217 0 0.477-0.093 0.933-0.263 1.349l0.009-0.024c-0.122 0.32-0.193 0.69-0.193 1.077 0 0.246 0.029 0.486 0.083 0.715l-0.004-0.021c0.114 0.566 0.114 1.149 0 1.714-0.098 0.876-0.712 1.586-1.528 1.825l-0.015 0.004c-0.731 0.139-1.383 0.546-1.829 1.143-0.107 0.173-0.296 0.286-0.511 0.286-0.001 0-0.002 0-0.003 0h0c-0.686 0.114-2.4-1.429-2.4-2.114v-0.343c0.057-2.057-0.057-2.229-1.943-3.086-0.408-0.146-0.754-0.382-1.027-0.684l-0.002-0.002c-0.343-0.457-0.8-0.4-1.314-0.229s-0.8 0.514-0.743 1.086c0.171 1.383 0.229 2.778 0.171 4.171 0.004 0.167 0.046 0.324 0.117 0.463l-0.003-0.006c1.771 2.571 2.457 5.6 3.314 8.514 0.686 2.229 1.943 3.429 4.229 3.6 0.366 0.030 0.729 0.087 1.086 0.171 0.965 0.159 1.726 0.882 1.94 1.813l0.003 0.016c0.4 1.2 0.171 1.486-1.029 1.486h-3.714c-0.028 0.002-0.061 0.002-0.094 0.002-0.469 0-0.897-0.174-1.223-0.461l0.002 0.002c-0.554-0.47-1.197-0.856-1.897-1.127l-0.046-0.016c-0.8-0.301-1.461-0.815-1.934-1.473l-0.008-0.012c-0.692-0.961-1.444-1.802-2.273-2.56l-0.013-0.011c-1.6-1.657-3.314-3.257-4.8-4.971-1.092-1.127-1.78-2.65-1.828-4.334l-0-0.009c0-0.514-0.114-0.743-0.686-0.514-0.162 0.104-0.359 0.168-0.57 0.171h-0.001c-1.6 0-2.4 0.971-2.971 2.4-0.514 1.2-1.2 2.343-1.829 3.543-0.341 0.702-0.549 1.524-0.571 2.393l-0 0.008c0 1.371 0.343 1.829 1.6 2.286 0.8 0.286 1.543 0.571 1.943 1.371 0.457 0.914 0.343 1.143-0.629 1.2h-3.886c-0.032 0.003-0.069 0.005-0.106 0.005-0.434 0-0.807-0.257-0.977-0.627l-0.003-0.007-1.029-1.714c-0.373-0.544-0.596-1.216-0.596-1.94 0-0.411 0.072-0.805 0.203-1.17l-0.008 0.024c0.128-0.492 0.201-1.057 0.201-1.639 0-0.492-0.052-0.972-0.152-1.434l0.008 0.045c-0.063-0.293-0.1-0.629-0.1-0.974 0-1.151 0.404-2.207 1.078-3.035l-0.007 0.009c0.343-0.4 0.343-0.571-0.229-0.686-2.551-0.55-4.803-1.358-6.907-2.418l0.164 0.075c-0.032 0-0.057-0.026-0.057-0.057v0c-1.829-0.686-2.171-0.571-2.686 1.314-0.457 1.6-0.914 3.2-1.257 4.857-0.4 1.829 0.057 3.543 0.629 5.257 0.229 0.686 0.914 0.629 1.429 0.8 1.143 0.343 2.114 0.8 2.571 2 0.4 0.914 0.343 1.029-0.629 1.029s-1.943-0.057-2.971 0c-0.020 0-0.045 0.001-0.069 0.001-0.883 0-1.695-0.301-2.339-0.807l0.008 0.006c-2.743-1.829-3.543-4.629-3.771-7.657-0.114-1.886-1.143-3.371-2.343-4.8-0.229-0.286-0.457-0.4-0.8-0.171-1.075 0.608-2.338 1.186-3.652 1.659l-0.177 0.055c-2.83 1.018-5.194 2.756-6.946 4.995l-0.025 0.034c-0.645 0.806-1.092 1.797-1.253 2.881l-0.004 0.033c-0.171 1.029 0.114 1.486 1.143 1.771s1.543 0.857 1.657 1.943c0.057 0.457-0.114 0.686-0.571 0.686h-4.629c-0.316-0.023-0.586-0.199-0.741-0.453l-0.002-0.004c-0.677-0.832-1.086-1.905-1.086-3.073 0-0.024 0-0.049 0.001-0.073l-0 0.004c-0.002-0.131-0.003-0.285-0.003-0.44 0-1.926 0.188-3.808 0.548-5.629l-0.030 0.183c0.162-1.204 0.9-2.207 1.923-2.733l0.020-0.009c3.371-1.6 5.143-4.629 6.743-7.771 0.343-0.629 0.057-0.743-0.514-0.686-1.68 0.239-3.174 0.889-4.423 1.845l0.023-0.017c-1.755 1.288-3.303 2.618-4.743 4.057l0-0c-1.522 1.545-3.566 2.573-5.846 2.797l-0.039 0.003c-4.171 0.229-6.114-2.114-5.943-5.886 0.041-1.342 0.554-2.557 1.377-3.492l-0.005 0.006c0.448-0.577 1.143-0.945 1.923-0.945 0.231 0 0.454 0.032 0.666 0.092l-0.017-0.004c0.857 0.229 1.086 0.686 0.743 1.543-0.171 0.343-0.4 0.629-0.571 0.971-0.234 0.328-0.428 0.707-0.563 1.113l-0.009 0.030c-0.629 1.714 0.229 2.914 2 3.086 1.886 0.171 3.429-0.629 4.857-1.771 1.727-1.39 3.231-2.949 4.523-4.676l0.048-0.067c1.947-2.545 4.857-4.268 8.176-4.624l0.052-0.005c1.314-0.171 2.457-0.743 3.714-1.086 2.351-0.717 4.8-1.063 7.257-1.029 0.092 0.004 0.2 0.006 0.309 0.006 1.088 0 2.121-0.234 3.052-0.654l-0.047 0.019c2.8-1.143 5.714-1.143 8.629-0.571 2.286 0.457 4.571 1.029 6.8 1.6 0.522 0.102 1.122 0.16 1.736 0.16 0.804 0 1.585-0.1 2.33-0.289l-0.065 0.014c2.252-0.597 4.873-1.006 7.566-1.139l0.091-0.004c0.151-0.008 0.327-0.012 0.504-0.012 1.601 0 3.118 0.363 4.473 1.011l-0.063-0.027c1.143 0.514 1.143 0.514 0.857 1.6z"></path>
</symbol>
<symbol id="icon-cat-slim-mob" viewBox="0 0 23 32">
<path d="M18.050 0h-0.125c-0.211 0.12-0.38 0.303-0.48 0.525-0.171 0.322-0.317 0.697-0.417 1.089l-0.008 0.036c-0.044 0.24-0.241 0.422-0.485 0.442l-0.002 0c-0.751 0.133-1.372 0.597-1.715 1.234l-0.006 0.013c-0.238 0.423-0.442 0.864-0.609 1.32-0.467 1.214-0.826 2.468-1.267 3.692-0.207 0.558-0.217 0.558-0.842 0.558-0.748 0-0.694-0.115-0.704 0.709 0 0.26 0.079 0.392 0.355 0.38 0.085 0 0.214-0.043 0.246 0.069s-0.079 0.161-0.145 0.227c-0.379 0.386-0.863 0.668-1.405 0.801l-0.020 0.004c-0.625 0.168-1.264 0.301-1.873 0.505-1.564 0.525-3.008 1.257-4.134 2.497-0.634 0.738-1.159 1.594-1.537 2.524l-0.022 0.062c-1.209 2.851-1.794 5.853-2.248 8.884-0.178 1.112-0.348 2.584-0.466 4.071l-0.014 0.217c-0.060 0.707-0.125 1.423-0.125 2.141h10.97c0.004-0.027 0.006-0.058 0.006-0.090 0-0.121-0.030-0.236-0.083-0.336l0.002 0.004c-0.216-0.529-0.684-0.914-1.251-1.011l-0.010-0.001c-0.23-0.053-0.257-0.122-0.115-0.304 0.23-0.308 0.408-0.654 0.524-1.022 0.536-1.587 0.744-3.243 1.004-4.883 0.147-1.252 0.531-2.464 1.133-3.572 0.483-0.83 1.097-1.528 1.823-2.089l0.016-0.012c0.273-0.208 0.284-0.208 0.33 0.145 0.033 0.234 0.039 0.475 0.056 0.712 0.039 0.584 0.062 1.265 0.062 1.952 0 0.96-0.044 1.909-0.13 2.846l0.009-0.12c-0.069 0.628-0.108 1.356-0.108 2.094 0 0.54 0.021 1.075 0.062 1.605l-0.004-0.070c0.147 1.55 0.411 2.962 0.789 4.328l-0.041-0.175h4.378c-0.121-0.733-0.673-1.309-1.383-1.463l-0.012-0.002c-0.14-0.023-0.301-0.037-0.465-0.037-0.275 0-0.541 0.038-0.793 0.108l0.021-0.005c-0.198 0.047-0.28 0-0.296-0.214-0.036-0.434-0.056-0.939-0.056-1.449 0-1.335 0.14-2.637 0.407-3.892l-0.022 0.122c0.381-1.607 0.735-3.647 0.981-5.72l0.027-0.278c0.093-0.862 0.36-1.645 0.765-2.338l-0.015 0.028c0.392-0.699 0.734-1.425 1.119-2.127 0.173-0.284 0.275-0.628 0.275-0.996 0-0.258-0.050-0.504-0.142-0.729l0.005 0.013c-0.089-0.234-0.175-0.472-0.283-0.696-0.33-0.643-0.659-1.28-0.961-1.93-0.161-0.33-0.125-0.369 0.234-0.38 0.536 0 0.536 0 0.547-0.541v-0.218c0-0.228-0.086-0.353-0.33-0.33h-0.5c-0.227 0-0.293-0.095-0.237-0.33 0.23-0.771 0.88-1.344 1.677-1.46l0.011-0.001c0.187-0.017 0.405-0.027 0.624-0.027 0.551 0 1.087 0.062 1.603 0.178l-0.048-0.009c0.030 0.010 0.064 0.015 0.099 0.015 0.145 0 0.268-0.094 0.311-0.224l0.001-0.002c0.132-0.33 0.276-0.659 0.425-0.989 0.027-0.047 0.044-0.104 0.044-0.164 0-0.081-0.029-0.155-0.077-0.213l0 0c-1.053-1.34-2.195-2.589-3.752-3.391-0.151-0.066-0.261-0.203-0.289-0.366l-0-0.003c-0.099-0.519-0.243-0.979-0.434-1.414l0.016 0.042c-0.092-0.239-0.254-0.434-0.46-0.565l-0.005-0.003z"></path>
</symbol>
<!-- <symbol id="icon-open-menu" viewBox="0 0 43 32">
<path stroke-linejoin="miter" stroke-linecap="butt" stroke-miterlimit="4" stroke-width="2.6667" d="M0 2.222h42.667M0 16.444h42.667M0 30.667h42.667"></path>
</symbol> -->
<!-- <symbol id="icon-open-menu" viewBox="0 0 32 32">
<path d="M6.4 11.733v-2.133h19.2v2.133h-19.2zM6.4 17.067h19.2v-2.133h-19.2v2.133zM6.4 22.4h19.2v-2.133h-19.2v2.133z"></path>
</symbol> -->
<symbol id="icon-open-menu_24px" viewBox="0 0 48 32">
<path d="M0 5.333v-5.333h48v5.333h-48zM0 18.667h48v-5.333h-48v5.333zM0 32h48v-5.333h-48v5.333z"></path>
</symbol>
<symbol id="icon-logo-1" viewBox="0 0 29 32">
<path fill="#fdc305" style="fill: var(--color1, #fdc305)" d="M5.112 17.448v-1.903c4.93-0.714 10.623-1.121 16.411-1.121 0.202 0 0.404 0.001 0.606 0.002l-0.031-0c0 0.505 0 1.019-0.051 1.533 1.457-0.666 3.152-1.198 4.923-1.513l0.13-0.019c-2.089-5.296-7.161-8.976-13.094-8.976-6.935 0-12.695 5.028-13.834 11.638l-0.012 0.083 4.952 0.278zM22.939 20.404c-0.977 1.078-1.171 1.011-1.171 2.905v7.731c3.807-2.541 6.283-6.816 6.291-11.67v-0.001c-0.012-0.931-0.11-1.831-0.285-2.704l0.016 0.093c-1.833 1.098-3.421 2.303-4.865 3.66l0.015-0.014zM5.356 21.659s-3.192-1.213-4.371-1.541c-0.271-0.090-0.603-0.172-0.943-0.23l-0.043-0.006c0.197 5.080 3.068 9.448 7.237 11.753l0.072 0.037-1.954-10.013z"></path>
<path fill="#f06351" style="fill: var(--color2, #f06351)" d="M22.139 14.417c0.001-0.165 0.002-0.361 0.002-0.557 0-4.705-0.43-9.31-1.252-13.777l0.071 0.465s-0.118-1.086-0.749-0.202c-0.466 0.962-0.819 2.078-1.002 3.25l-0.009 0.067c-1.138-0.078-2.467-0.122-3.807-0.122-2.448 0-4.862 0.149-7.232 0.437l0.285-0.028c-0.665-2.265-1.836-3.318-2.4-3.107s-0.606 2.787-0.606 2.787l-0.278 11.874c4.858-0.693 10.468-1.089 16.17-1.089 0.284 0 0.567 0.001 0.85 0.003l-0.043-0z"></path>
<path fill="#000" style="fill: var(--color3, #000)" d="M10.451 11.789c0-0.076 0.842 0.573 1.187 0.775s0.514 0.354 0.514 0.497c0 0.143-0.227 0.286-0.531 0.286s-0.766-0.101-0.842-0.227h1.036c-0.519-0.386-0.968-0.825-1.353-1.315l-0.012-0.015zM16.749 11.882l-0.918 1.12c0 0.051-0.143 0.295 0.152 0.253 0.391-0.059 0.737-0.144 1.071-0.257l-0.044 0.013c0.093 0 0.059-0.16-0.093-0.143s-0.581 0.042-0.842 0.093l0.707-1.061s0.059-0.109-0.034-0.017zM14.105 17.011c0.394-0.177 0.71-0.468 0.913-0.832l0.005-0.010c0.236-0.547 0-0.766-0.371-0.842-0.11-0.021-0.237-0.033-0.367-0.033-0.408 0-0.787 0.119-1.106 0.324l0.008-0.005c-0.328 0.303-0.286 0.606-0.042 0.842 0.278 0.212 0.594 0.398 0.931 0.545l0.029 0.011z"></path>
<path fill="#f06351" style="fill: var(--color2, #f06351)" d="M13.768 18.063c-0.098 0.198-0.229 0.366-0.386 0.504l-0.002 0.002c-0.229 0.186-0.521 0.304-0.839 0.32l-0.003 0c-0.043 0.004-0.093 0.006-0.144 0.006-0.413 0-0.794-0.138-1.098-0.371l0.004 0.003c-0.171-0.104-0.318-0.227-0.445-0.369l-0.002-0.002c-0.084-0.093-0.188-0.168-0.303-0.219 0 0 0.632 3.453 2.164 4s1.802-0.632 1.853-0.952c0.004-0.075 0.007-0.162 0.007-0.25 0-0.914-0.259-1.767-0.709-2.49l0.012 0.020c-0.017-0.261-0.025-0.093-0.109-0.202z"></path>
<path fill="#000" style="fill: var(--color3, #000)" d="M12.387 19.023c-0.83-0.12-1.535-0.577-1.982-1.225l-0.006-0.010c-0.006-0.013-0.009-0.029-0.009-0.046 0-0.033 0.014-0.063 0.035-0.084l0-0c0.021-0.022 0.051-0.035 0.084-0.035s0.063 0.014 0.084 0.035l0 0c0.419 0.571 1.042 0.971 1.761 1.093l0.016 0.002c0.583-0.045 1.081-0.368 1.368-0.834l0.004-0.008 0.118-0.16 0.084 0.177s0.312 0.64 0.842 0.674c0.531 0.034 0.884-0.345 1.356-1.078 0.021-0.022 0.051-0.035 0.084-0.035s0.063 0.014 0.084 0.035l0 0c0.035 0.023 0.058 0.062 0.058 0.106 0 0.023-0.006 0.044-0.017 0.063l0-0.001c-0.539 0.842-1.069 1.213-1.583 1.179-0.405-0.060-0.745-0.3-0.94-0.634l-0.003-0.006c-0.329 0.455-0.846 0.757-1.435 0.791l-0.005 0z"></path>
<path fill="#f06351" style="fill: var(--color2, #f06351)" d="M22.097 15.933c-1.517 1.376-2.912 2.802-4.217 4.309l-0.052 0.062c-1.325 1.534-2.785 2.887-4.382 4.067l-0.073 0.051c-0.185-0.446-1.364-1.272-1.364-1.272s-2.636-1.802-4.362-3.217c-0.951-0.805-1.811-1.63-2.617-2.506l-0.018-0.020-1.684-0.093c2.422 3.491 5.902 6.098 9.971 7.374l0.135 0.036c0.724-0.118 2.754-1.566 4.269-2.745 1.805-1.554 3.439-3.175 4.954-4.904l0.048-0.056c0.408-0.476 0.734-1.036 0.949-1.648l0.011-0.036c-0.926 0.328-1.566 0.598-1.566 0.598z"></path>
</symbol>
</defs>
</svg>
